<svg style="position: absolute; width: 0; height: 0; overflow: hidden;" version="1.1" xmlns="http://www.w3.org/2000/svg" xmlns:xlink="http://www.w3.org/1999/xlink">
    <defs>
        <symbol id="tcb-icon-play" viewBox="0 0 20 20">
            <path fill="#fff" style="fill: var(--color1, #fff)" d="M18.659 4.98c-0.889-1.519-2.12-2.75-3.593-3.614l-0.047-0.025q-2.298-1.341-5.020-1.341t-5.019 1.341c-1.52 0.889-2.751 2.12-3.614 3.593l-0.025 0.047q-1.341 2.298-1.341 5.020t1.341 5.020c0.889 1.519 2.12 2.75 3.593 3.614l0.047 0.025q2.298 1.341 5.020 1.341t5.020-1.341c1.519-0.889 2.75-2.12 3.614-3.593l0.025-0.047q1.341-2.298 1.341-5.020t-1.341-5.020zM15 10.716l-7.083 4.167c-0.118 0.074-0.262 0.117-0.416 0.117-0 0-0 0-0.001 0h0c-0.153-0.002-0.296-0.040-0.422-0.107l0.005 0.002q-0.417-0.247-0.417-0.729v-8.333q0-0.482 0.417-0.729 0.43-0.234 0.833 0.013l7.084 4.167q0.416 0.234 0.416 0.716t-0.416 0.716z"></path>
        </symbol>
        <symbol id="tcb-icon-video-player" viewBox="0 0 20 20">
            <path d="M13.265 11.283l-5-2.5c-0.097-0.048-0.212-0.044-0.304 0.014s-0.148 0.157-0.148 0.266v5c0 0.108 0.056 0.209 0.148 0.266 0.050 0.031 0.107 0.047 0.164 0.047 0.048 0 0.096-0.011 0.14-0.033l5-2.5c0.106-0.053 0.173-0.161 0.173-0.28s-0.067-0.226-0.173-0.28zM8.438 13.557v-3.989l3.989 1.994-3.989 1.994z"></path>
            <path d="M18.75 1.563h-17.5c-0.69 0-1.25 0.56-1.25 1.25v14.375c0 0.69 0.56 1.25 1.25 1.25h17.5c0.69 0 1.25-0.56 1.25-1.25v-14.375c0-0.69-0.56-1.25-1.25-1.25zM19.375 2.813v2.5h-2.603l0.837-3.125h1.14c0.345 0 0.625 0.28 0.625 0.625zM6.65 2.188l-0.837 3.125h-2.797l0.837-3.125h2.797zM7.297 2.188h2.791l-0.837 3.125h-2.791l0.837-3.125zM10.735 2.188h2.791l-0.837 3.125h-2.791l0.837-3.125zM14.172 2.188h2.791l-0.837 3.125h-2.791l0.837-3.125zM1.25 2.188h1.956l-0.837 3.125h-1.744v-2.5c0-0.345 0.28-0.625 0.625-0.625zM18.75 17.813h-17.5c-0.345 0-0.625-0.28-0.625-0.625v-11.25h18.75v11.25c0 0.345-0.28 0.625-0.625 0.625z"></path>
        </symbol>
        <symbol id="tcb-icon-post_grid" viewBox="0 0 20 20">
            <path d="M8.778 9.087c0.259 0 0.469-0.21 0.469-0.469s-0.21-0.469-0.469-0.469h-8.309c-0.259 0-0.469 0.211-0.469 0.469s0.21 0.469 0.469 0.469h8.309z"></path>
            <path d="M19.531 8.15h-8.309c-0.259 0-0.469 0.21-0.469 0.469s0.21 0.469 0.469 0.469h8.309c0.259 0 0.469-0.21 0.469-0.469s-0.21-0.469-0.469-0.469z"></path>
            <path d="M8.303-0.021h-7.25c-0.581 0-1.053 0.472-1.053 1.053v4.873c0 0.581 0.472 1.053 1.053 1.053h7.25c0.581 0 1.053-0.473 1.053-1.053v-4.873c0-0.581-0.473-1.053-1.053-1.053zM8.419 5.906c0 0.064-0.052 0.116-0.116 0.116h-7.25c-0.064 0-0.116-0.052-0.116-0.116v-4.873c0-0.064 0.052-0.116 0.116-0.116h7.25c0.064 0 0.116 0.052 0.116 0.116v4.873z"></path>
            <path d="M18.947-0.021h-7.25c-0.581 0-1.053 0.472-1.053 1.053v4.873c0 0.581 0.473 1.053 1.053 1.053h7.25c0.581 0 1.053-0.473 1.053-1.053v-4.873c0-0.581-0.473-1.053-1.053-1.053zM19.063 5.906c0 0.064-0.052 0.116-0.116 0.116h-7.25c-0.063 0-0.115-0.052-0.115-0.116v-4.873c0-0.064 0.052-0.116 0.115-0.116h7.25c0.064 0 0.116 0.052 0.116 0.116v4.873z"></path>
            <path d="M8.778 19.063h-8.309c-0.259 0-0.469 0.21-0.469 0.469s0.21 0.469 0.469 0.469h8.309c0.259 0 0.469-0.21 0.469-0.469s-0.209-0.469-0.469-0.469z"></path>
            <path d="M19.531 19.063h-8.309c-0.259 0-0.469 0.21-0.469 0.469s0.21 0.469 0.469 0.469h8.309c0.259 0 0.469-0.21 0.469-0.469s-0.21-0.469-0.469-0.469z"></path>
            <path d="M8.303 10.891h-7.25c-0.581 0-1.053 0.473-1.053 1.053v4.873c0 0.581 0.472 1.054 1.053 1.054h7.25c0.581 0 1.053-0.473 1.053-1.054v-4.873c0-0.581-0.473-1.053-1.053-1.053zM8.419 16.818c0 0.064-0.052 0.116-0.116 0.116h-7.25c-0.064 0-0.116-0.052-0.116-0.116v-4.873c0-0.064 0.052-0.116 0.116-0.116h7.25c0.064 0 0.116 0.052 0.116 0.116v4.873z"></path>
            <path d="M18.947 10.891h-7.25c-0.581 0-1.053 0.473-1.053 1.053v4.873c0 0.581 0.473 1.054 1.053 1.054h7.25c0.581 0 1.053-0.473 1.053-1.054v-4.873c0-0.581-0.473-1.053-1.053-1.053zM19.063 16.818c0 0.064-0.052 0.116-0.116 0.116h-7.25c-0.063 0-0.115-0.052-0.115-0.116v-4.873c0-0.064 0.052-0.116 0.115-0.116h7.25c0.065 0 0.116 0.051 0.116 0.116v4.873z"></path>
        </symbol>
        <symbol id="tcb-icon-content_temp" viewBox="0 0 20 20">
            <path d="M16.496 7.863h-12.991v4.273h12.991v-4.273zM15.558 11.199h-11.116v-2.398h11.116v2.398z"></path>
            <path d="M16.178 5.601h-12.356c-0.259 0-0.469 0.21-0.469 0.469s0.21 0.469 0.469 0.469h12.356c0.259 0 0.469-0.21 0.469-0.469s-0.21-0.469-0.469-0.469z"></path>
            <path d="M16.178 13.461h-12.356c-0.259 0-0.469 0.21-0.469 0.469s0.21 0.469 0.469 0.469h12.356c0.259 0 0.469-0.21 0.469-0.469s-0.21-0.469-0.469-0.469z"></path>
            <path d="M0.938 2.251c0-0.724 0.589-1.314 1.336-1.314l-0.022-0.938c-1.241 0-2.251 1.010-2.251 2.251v0.417h0.938v-0.417z"></path>
            <path d="M0 11.454h0.938v3.24h-0.938v-3.24z"></path>
            <path d="M0 7.446h0.938v3.24h-0.938v-3.24z"></path>
            <path d="M0 3.437h0.938v3.24h-0.938v-3.24z"></path>
            <path d="M11.059 0h3.241v0.938h-3.241v-0.938z"></path>
            <path d="M18.138 1.013l0.315-0.883c-0.242-0.086-0.497-0.13-0.756-0.13h-2.63v0.938h2.63c0.152 0 0.3 0.026 0.441 0.076z"></path>
            <path d="M3.042 0h3.24v0.938h-3.24v-0.938z"></path>
            <path d="M0.938 17.697v-2.235h-0.938v2.235c0 0.428 0.121 0.844 0.349 1.204l0.792-0.502c-0.133-0.209-0.203-0.451-0.203-0.702z"></path>
            <path d="M7.051 0h3.24v0.938h-3.24v-0.938z"></path>
            <path d="M9.241 19.011h3.24v0.938h-3.24v-0.938z"></path>
            <path d="M19.011 8.846h0.938v3.241h-0.938v-3.241z"></path>
            <path d="M1.536 18.799l-0.511 0.786c0.365 0.237 0.789 0.363 1.226 0.363h2.213v-0.938h-2.213c-0.256 0-0.503-0.073-0.715-0.212z"></path>
            <path d="M19.011 4.838h0.938v3.24h-0.938v-3.24z"></path>
            <path d="M19.011 17.697c0 0.724-0.589 1.314-1.314 1.314h-0.439v0.938h0.439c1.241 0 2.251-1.009 2.251-2.251v-0.834h-0.938v0.834z"></path>
            <path d="M19.011 12.855h0.938v3.24h-0.938v-3.24z"></path>
            <path d="M5.232 19.011h3.24v0.938h-3.24v-0.938z"></path>
            <path d="M19.271 0.64l-0.656 0.671c0.256 0.249 0.396 0.583 0.396 0.94v1.818h0.938v-1.817c0-0.611-0.241-1.183-0.678-1.611z"></path>
            <path d="M13.25 19.011h3.24v0.938h-3.24v-0.938z"></path>
        </symbol>
        <symbol id="tcb-icon-copy" viewBox="0 0 20 20">
            <path d="M18.929 4.286q0.446 0 0.759 0.313t0.313 0.759v13.571q0 0.446-0.313 0.759t-0.759 0.313h-10.714q-0.446 0-0.759-0.313t-0.313-0.759v-3.214h-6.071q-0.446 0-0.759-0.313t-0.313-0.759v-7.5q0-0.446 0.223-0.982t0.536-0.848l4.554-4.554q0.313-0.313 0.848-0.536t0.982-0.223h4.643q0.446 0 0.759 0.313t0.313 0.759v3.661q0.759-0.446 1.429-0.446h4.643zM12.857 6.663l-3.337 3.337h3.337v-3.337zM5.714 2.377l-3.337 3.337h3.337v-3.337zM7.902 9.598l3.527-3.527v-4.643h-4.286v4.643q0 0.446-0.313 0.759t-0.759 0.313h-4.643v7.143h5.714v-2.857q0-0.446 0.223-0.982t0.536-0.848zM18.571 18.571v-12.857h-4.286v4.643q0 0.446-0.313 0.759t-0.759 0.313h-4.643v7.143h10z"></path>
        </symbol>
        <symbol id="tcb-icon-trash" viewBox="0 0 20 20">
            <path d="M7.857 8.214v6.429q0 0.156-0.1 0.257t-0.257 0.1h-0.714q-0.156 0-0.257-0.1t-0.1-0.257v-6.429q0-0.156 0.1-0.257t0.257-0.1h0.714q0.156 0 0.257 0.1t0.1 0.257zM10.714 8.214v6.429q0 0.156-0.1 0.257t-0.257 0.1h-0.714q-0.156 0-0.257-0.1t-0.1-0.257v-6.429q0-0.156 0.1-0.257t0.257-0.1h0.714q0.156 0 0.257 0.1t0.1 0.257zM13.571 8.214v6.429q0 0.156-0.1 0.257t-0.257 0.1h-0.714q-0.156 0-0.257-0.1t-0.1-0.257v-6.429q0-0.156 0.1-0.257t0.257-0.1h0.714q0.156 0 0.257 0.1t0.1 0.257zM15 16.295v-10.58h-10v10.58q0 0.246 0.078 0.452t0.162 0.301 0.117 0.095h9.286q0.033 0 0.117-0.095t0.162-0.301 0.078-0.452zM7.5 4.286h5l-0.536-1.306q-0.078-0.1-0.19-0.123h-3.538q-0.112 0.022-0.19 0.123zM17.857 4.643v0.714q0 0.156-0.1 0.257t-0.257 0.1h-1.071v10.58q0 0.926-0.525 1.602t-1.261 0.675h-9.286q-0.737 0-1.261-0.653t-0.525-1.579v-10.625h-1.071q-0.156 0-0.257-0.1t-0.1-0.257v-0.714q0-0.156 0.1-0.257t0.257-0.1h3.449l0.781-1.864q0.167-0.413 0.603-0.703t0.882-0.29h3.571q0.446 0 0.882 0.29t0.603 0.703l0.781 1.864h3.449q0.156 0 0.257 0.1t0.1 0.257z"></path>
        </symbol>
        <symbol id="tcb-icon-add" viewBox="0 0 20 20">
            <path d="M11.25 2.5v6.25h6.25v2.5h-6.25v6.25h-2.5v-6.25h-6.25v-2.5h6.25v-6.25h2.5z"></path>
        </symbol>
        <symbol id="tcb-icon-delete" viewBox="0 0 20 20">
            <path d="M13.75 5c0-1.375-1.125-2.5-2.5-2.5h-2.5c-1.375 0-2.5 1.125-2.5 2.5h-2.5v1.25h12.5v-1.25h-2.5zM7.5 5c0-0.75 0.5-1.25 1.25-1.25h2.5c0.75 0 1.25 0.5 1.25 1.25h-5z"></path>
            <path d="M5 15c0 1.375 1.125 2.5 2.5 2.5h5c1.375 0 2.5-1.125 2.5-2.5v-7.5h-10v7.5z"></path>
        </symbol>
        <symbol id="tcb-icon-merge" viewBox="0 0 20 20">
            <path d="M14.167 17l1.167-1.167-2.833-2.833-1.167 1.167zM6.25 6.667h2.917v4.667l-4.5 4.5 1.167 1.167 5-5v-5.333h2.917l-3.75-3.75z"></path>
        </symbol>
        <symbol id="tcb-icon-split" viewBox="0 0 20 20">
            <path d="M11.667 3.333l1.917 1.917-2.417 2.417 1.167 1.167 2.417-2.417 1.917 1.917v-5zM8.333 3.333h-5v5l1.917-1.917 3.917 3.917v6.333h1.667v-7l-4.417-4.417z"></path>
        </symbol>
        <symbol id="tcb-icon-table" viewBox="0 0 20 20">
            <path d="M-0.014-0.014v20.028h20.028v-20.028h-20.028zM19.076 6.413h-5.431v-5.489h5.431v5.489zM7.292 12.767v-5.416h5.417v5.416h-5.417zM12.708 13.704v5.373h-5.417v-5.373h5.417zM6.354 12.767h-5.431v-5.416h5.431v5.416zM7.292 6.413v-5.489h5.417v5.489h-5.417zM13.646 7.351h5.431v5.416h-5.431v-5.416zM6.354 0.924v5.489h-5.431v-5.489h5.431zM0.924 13.704h5.431v5.373h-5.431v-5.373zM13.646 19.076v-5.372h5.431v5.372h-5.431z"></path>
        </symbol>
        <symbol id="tcb-icon-image" viewBox="0 0 20 20">
            <path d="M18.313 0.031h-16.626c-0.913 0-1.656 0.742-1.656 1.656v16.627c0 0.914 0.743 1.656 1.656 1.656h16.626c0.914 0 1.656-0.743 1.656-1.656v-16.627c0-0.913-0.742-1.656-1.656-1.656zM1.687 0.968h16.626c0.397 0 0.719 0.323 0.719 0.718v14.566l-4.926-5.095-2.612 2.68-3.952-3.914-6.573 6.484v-14.721c0-0.396 0.322-0.718 0.719-0.718zM0.968 18.313v-0.588l6.574-6.486 3.163 3.117 0.149 0.169-4.356 4.505h-4.811c-0.397 0-0.719-0.322-0.719-0.719zM18.313 19.032h-10.511l6.307-6.524 4.883 5.051c0.012 0.012 0.027 0.017 0.041 0.027v0.726c-0.001 0.397-0.323 0.719-0.719 0.719z"></path>
            <path d="M13.482 7.856c1.189 0 2.156-0.968 2.156-2.156s-0.967-2.156-2.156-2.156c-1.189 0-2.156 0.967-2.156 2.156s0.967 2.156 2.156 2.156zM13.482 4.482c0.672 0 1.218 0.547 1.218 1.218s-0.546 1.219-1.218 1.219-1.218-0.547-1.218-1.219c0-0.672 0.546-1.218 1.218-1.218z"></path>
        </symbol>
        <symbol id="tcb-icon-testimonials" viewBox="0 0 20 20">
            <path d="M12.753 4.895h-0.843l0.768-2.274h-1.31l-1.024 2.411v2.349h2.41z"></path>
            <path d="M9.373 4.895h-0.844l0.769-2.274h-1.311l-1.024 2.411v2.349h2.411z"></path>
            <path d="M17.023 10.786c0-0.259-0.21-0.469-0.469-0.469h-13.168c-0.259 0-0.469 0.21-0.469 0.469s0.21 0.469 0.469 0.469h13.168c0.259 0 0.469-0.21 0.469-0.469z"></path>
            <path d="M3.386 12.875c-0.259 0-0.469 0.21-0.469 0.469s0.21 0.469 0.469 0.469h9.089c0.259 0 0.469-0.21 0.469-0.469s-0.21-0.469-0.469-0.469h-9.089z"></path>
            <path d="M18.321 5.572h-4.212v0.938h4.212c0.391 0 0.71 0.319 0.71 0.711v8.511c0 0.392-0.319 0.711-0.71 0.711h-16.641c-0.392 0-0.711-0.319-0.711-0.711v-8.511c0-0.392 0.319-0.711 0.711-0.711h3.881v-0.938h-3.881c-0.909 0-1.648 0.739-1.648 1.648v8.511c0 0.909 0.739 1.648 1.648 1.648h16.641c0.908 0 1.648-0.739 1.648-1.648v-8.511c-0.001-0.909-0.739-1.648-1.648-1.648z"></path>
        </symbol>
        <symbol id="tcb-icon-custom_html" viewBox="0 0 20 20">
            <path d="M11.866 1.586c-0.256-0.054-0.502 0.11-0.554 0.364l-3.294 15.91c-0.053 0.254 0.111 0.502 0.364 0.554 0.032 0.007 0.064 0.010 0.096 0.010 0.218 0 0.413-0.152 0.458-0.374l3.294-15.911c0.052-0.254-0.11-0.502-0.364-0.554z"></path>
            <path d="M19.83 9.729l-4.093-3.384c-0.198-0.164-0.494-0.137-0.66 0.063s-0.137 0.495 0.063 0.66l3.644 3.013-3.634 2.843c-0.204 0.16-0.24 0.454-0.081 0.658 0.092 0.119 0.23 0.18 0.37 0.18 0.101 0 0.203-0.033 0.288-0.099l4.093-3.202c0.112-0.088 0.178-0.221 0.18-0.362s-0.061-0.278-0.171-0.368z"></path>
            <path d="M4.978 6.408c-0.166-0.199-0.461-0.228-0.66-0.063l-4.092 3.384c-0.109 0.091-0.172 0.226-0.17 0.367s0.068 0.275 0.18 0.362l4.092 3.202c0.086 0.067 0.188 0.099 0.289 0.099 0.139 0 0.277-0.062 0.369-0.18 0.159-0.204 0.124-0.498-0.080-0.658l-3.633-2.843 3.643-3.013c0.199-0.164 0.227-0.46 0.062-0.659z"></path>
        </symbol>
        <symbol id="tcb-icon-wordpress" viewBox="0 0 20 20">
            <path d="M10 0.221c-5.393 0-9.779 4.387-9.779 9.779s4.387 9.779 9.779 9.779c5.393 0 9.779-4.387 9.779-9.779s-4.387-9.779-9.779-9.779zM10 1.158c2.259 0 4.316 0.859 5.88 2.257-0.004-0.001-0.011-0.002-0.014-0.002-1.546-0.159-1.703 1.088-1.564 1.874 0.095 0.541 0.284 1.176 1.031 2.364 0.837 1.336 0.299 3.486 0.299 3.486l-1.344 4.456-3.021-9.738c0.292 0 0.538 0 0.691 0 0.481 0.004 0.615-0.269 0.586-0.448-0.012-0.055-0.063-0.217-0.204-0.28-0.234-0.099-1.112-0.032-2.173-0.032-1.067 0-1.887 0.001-2.524-0.006-0.102 0-0.294 0.091-0.296 0.299-0.002 0.221 0.242 0.504 0.553 0.489 0.334-0.017 0.652-0.013 0.652-0.013s0.012 0 0.034 0l1.286 3.921-1.853 5.836-3.096-9.683c0.281 0 0.519 0 0.671 0 0.478 0.002 0.615-0.269 0.583-0.446-0.006-0.059-0.060-0.22-0.207-0.279-0.231-0.101-1.107-0.036-2.171-0.036-0.598 0-0.92 0.001-1.203 0.001 1.58-2.418 4.305-4.021 7.402-4.021zM1.158 10c0-1.474 0.367-2.862 1.008-4.086 0.011 0.023 0.018 0.037 0.018 0.037s0.016-0.002 0.037-0.002l0.377 1.008 1.298 3.819v0.003l0.004 0.004 2.533 7.302c-3.103-1.376-5.276-4.479-5.276-8.086zM7.825 18.56l2.629-7.674 2.399 7.474c-0.896 0.307-1.854 0.481-2.853 0.481-0.752 0-1.478-0.104-2.175-0.282zM14.404 17.656c0.749-2.321 2.697-8.376 2.982-9.506 0.249-0.99 0.354-1.774 0.315-2.479 0.723 1.281 1.141 2.756 1.141 4.329 0 3.271-1.79 6.127-4.438 7.656z"></path>
        </symbol>
        <symbol id="tcb-icon-column" viewBox="0 0 20 20">
            <path d="M11.563 0.188h-3.125c-0.75 0-1.438 0.625-1.438 1.437v16.875c0 0.75 0.625 1.438 1.438 1.438h3.125c0.75 0 1.438-0.625 1.438-1.438v-16.875c0-0.813-0.688-1.438-1.438-1.438zM12.063 18.438c0 0.25-0.188 0.5-0.5 0.5h-3.125c-0.25 0-0.5-0.188-0.5-0.5v-16.875c0-0.25 0.188-0.5 0.5-0.5h3.125c0.25 0 0.5 0.188 0.5 0.5v16.875z"></path>
            <path d="M18.438 0h-3.125c-0.75 0-1.438 0.625-1.438 1.438v16.875c0 0.75 0.625 1.438 1.438 1.438h3.125c0.75 0 1.438-0.625 1.438-1.438v-16.875c-0.063-0.813-0.688-1.438-1.438-1.438zM18.875 18.313c0 0.25-0.188 0.5-0.5 0.5h-3.125c-0.25 0-0.5-0.188-0.5-0.5v-16.875c0-0.25 0.188-0.5 0.5-0.5h3.125c0.25 0 0.5 0.188 0.5 0.5v16.875z"></path>
            <path d="M4.75 0h-3.125c-0.813 0-1.438 0.625-1.438 1.438v16.875c0 0.75 0.625 1.438 1.438 1.438h3.125c0.75 0 1.437-0.625 1.437-1.438v-16.875c-0.063-0.813-0.688-1.438-1.438-1.438zM5.188 18.313c0 0.25-0.188 0.438-0.438 0.438h-3.125c-0.25 0-0.5-0.188-0.5-0.5v-16.875c0-0.25 0.188-0.5 0.5-0.5h3.125c0.25 0 0.5 0.188 0.5 0.5v16.938z"></path>
        </symbol>
        <symbol id="tcb-icon-styled_box" viewBox="0 0 32 32">
            <title>styled_box</title>
            <path fill="#333" style="fill: var(--color1, #333)" d="M32 32.1h-5.9v-1.5h5.2v0.6h0.7v0.9zM24.8 32.1h-5.2v-1.5h5.2v1.5zM18.4 32.1h-5.2v-1.5h5.2v1.5zM12 32.1h-5.2v-1.5h5.2v1.5zM5.6 32.1h-5.6v-1.1h0.8v-0.4h4.8v1.5zM32 30h-1.5v-5.2h1.5v5.2zM1.5 29.7h-1.5v-5.2h1.5v5.2zM32 23.5h-1.5v-5.2h1.5v5.2zM1.5 23.3h-1.5v-5.2h1.5v5.2zM32 17.1h-1.5v-5.2h1.5v5.2zM1.5 16.9h-1.5v-5.2h1.5v5.2zM32 10.7h-1.5v-5.2h1.5v5.2zM1.5 10.5h-1.5v-5.2h1.5v5.2zM32 4.3h-1.5v-2.7h-1v-1.5h2.5v4.2zM1.5 4.1h-1.5v-4h2.7v1.5h-1.2v2.5zM28.3 1.6h-5.2v-1.5h5.2v1.5zM21.9 1.6h-5.2v-1.5h5.2v1.5zM15.5 1.6h-5.2v-1.5h5.2v1.5zM9.1 1.6h-5.2v-1.5h5.2v1.5z"></path>
            <path fill="#333" style="fill: var(--color1, #333)" d="M28 28.1h-24v-24h24v24zM5.5 26.6h21v-21h-21v21z"></path>
            <path fill="#f9f7f7" style="fill: var(--color5, #f9f7f7)" d="M9.6 21.1c0 0 1.4-0.7 1.6-2 0.2-1.2 1.1-1.8 1.6-2 0.5-0.1 1.4 0.1 1.4 0.1l0.9 1c0 0-0.2 1.5-0.5 2-0.5 0.7-1.5 1-2.1 1-0.5 0.1-2.9-0.1-2.9-0.1z"></path>
            <path fill="#333" style="fill: var(--color1, #333)" d="M12.5 22c-0.8 0-2.8-0.1-2.9-0.1-0.3 0-0.6-0.3-0.7-0.6s0.1-0.7 0.4-0.8c0 0 1.1-0.6 1.3-1.5 0.3-1.4 1.3-2.3 2.1-2.6 0.6-0.2 1.6 0 1.8 0.1 0.2 0 0.3 0.1 0.4 0.2l0.9 1c0.1 0.2 0.2 0.4 0.2 0.6 0 0.4-0.2 1.8-0.6 2.3-0.6 1-1.8 1.4-2.7 1.4-0.1 0-0.1 0-0.2 0zM11.4 20.5c0.5 0 0.9 0 1.2 0 0.5 0 1.2-0.2 1.5-0.7 0.1-0.2 0.2-0.7 0.3-1.4l-0.5-0.6c-0.3-0.1-0.7-0.1-0.9 0-0.3 0.1-0.9 0.5-1.1 1.4 0 0.5-0.2 0.9-0.5 1.3z"></path>
            <path fill="#f9f7f7" style="fill: var(--color5, #f9f7f7)" d="M22.6 9.5c-0.5-0.4-1.5 0-1.8 0.3 0 0-6.3 6.8-6.3 6.9l1.2 1.2c0.1 0 6.9-6.4 6.9-6.4 0.8-1 0.4-1.7 0-2z"></path>
            <path fill="#333" style="fill: var(--color1, #333)" d="M15.7 18.7c-0.2 0-0.4-0.1-0.5-0.2l-1.2-1.2c-0.2-0.2-0.3-0.5-0.2-0.8 0.1-0.2 0.1-0.3 6.5-7.2 0.5-0.5 1.9-1.2 2.9-0.4 0.7 0.6 1.2 1.7 0.1 3.1 0 0-0.1 0.1-0.1 0.1-6.9 6.5-7 6.5-7.1 6.6-0.3 0-0.4 0-0.4 0zM15.4 16.7l0.2 0.2c1.2-1.1 4.2-3.9 6.3-5.9 0.5-0.6 0.2-0.8 0.1-0.9 0 0 0 0 0 0-0.1-0.1-0.7 0.1-0.8 0.3-1.9 2.1-4.7 5.1-5.8 6.3zM22.5 11.5v0 0z"></path>
        </symbol>
        <symbol id="tcb-icon-guarantee_box" viewBox="0 0 32 32">
            <title>guarantee_box</title>
            <path d="M27.977 11.829c0-0.213-0.086-0.418-0.239-0.566l-1.781-1.729 0.837-2.313c0.072-0.2 0.062-0.42-0.031-0.611-0.092-0.191-0.258-0.337-0.459-0.405l-2.381-0.802-0.268-2.445c-0.023-0.209-0.129-0.4-0.293-0.531s-0.378-0.192-0.583-0.167l-2.512 0.29-1.329-2.099c-0.232-0.367-0.716-0.477-1.085-0.248l-2.135 1.332-2.134-1.332c-0.367-0.229-0.852-0.119-1.085 0.247l-1.332 2.1-2.512-0.29c-0.21-0.024-0.418 0.036-0.583 0.167s-0.27 0.322-0.292 0.531l-0.27 2.443-2.381 0.803c-0.201 0.067-0.367 0.213-0.459 0.405s-0.103 0.412-0.031 0.612l0.84 2.312-1.783 1.729c-0.153 0.149-0.24 0.353-0.24 0.567 0 0.213 0.086 0.418 0.24 0.566l1.783 1.731-0.84 2.311c-0.072 0.2-0.062 0.42 0.031 0.612 0.092 0.191 0.258 0.338 0.459 0.405l2.381 0.802 0.269 2.446c0.023 0.209 0.128 0.4 0.292 0.531 0.165 0.132 0.375 0.192 0.583 0.167l2.512-0.291 0.53 0.837c0.001 0.002 0.002 0.003 0.003 0.005l0.115 0.181v9.047c0 0.277 0.146 0.534 0.383 0.677s0.532 0.15 0.777 0.021l3.103-1.649 2.303 1.601c0.135 0.094 0.292 0.141 0.45 0.141 0.125 0 0.251-0.029 0.365-0.090 0.261-0.136 0.424-0.405 0.424-0.699v-9.048l0.646-1.021 2.512 0.291c0.206 0.026 0.419-0.035 0.583-0.167 0.164-0.131 0.27-0.322 0.293-0.531l0.268-2.447 2.381-0.801c0.201-0.067 0.367-0.214 0.459-0.405 0.093-0.191 0.104-0.412 0.031-0.611l-0.837-2.312 1.781-1.731c0.155-0.151 0.241-0.356 0.241-0.569zM18.042 29.669l-1.458-1.014c-0.244-0.17-0.561-0.188-0.821-0.049l-2.369 1.26v-6.337c0.064-0.020 0.13-0.034 0.19-0.071l2.134-1.331 2.135 1.331c0.061 0.038 0.124 0.064 0.189 0.084v6.127zM24.49 13.349c-0.223 0.216-0.298 0.543-0.192 0.835l0.735 2.032-2.093 0.705c-0.291 0.098-0.499 0.356-0.533 0.662l-0.236 2.158-2.216-0.256c-0.297-0.034-0.596 0.106-0.758 0.362l-1.175 1.855-1.887-1.177c-0.256-0.16-0.58-0.16-0.836 0l-1.888 1.178-0.38-0.598c-0.001-0.002-0.001-0.003-0.002-0.005l-0.795-1.255c-0.162-0.255-0.452-0.4-0.758-0.361l-2.215 0.256-0.237-2.158c-0.034-0.306-0.242-0.564-0.533-0.662l-2.092-0.704 0.738-2.032c0.106-0.292 0.031-0.62-0.192-0.836l-1.566-1.52 1.566-1.518c0.223-0.217 0.298-0.544 0.192-0.836l-0.738-2.032 2.092-0.705c0.292-0.098 0.499-0.356 0.533-0.662l0.237-2.158 2.216 0.255c0.305 0.036 0.595-0.106 0.757-0.361l1.178-1.856 1.888 1.178c0.256 0.159 0.58 0.159 0.836 0l1.887-1.177 1.175 1.855c0.162 0.256 0.46 0.399 0.758 0.362l2.216-0.255 0.236 2.157c0.034 0.306 0.242 0.564 0.533 0.662l2.093 0.705-0.735 2.034c-0.105 0.292-0.030 0.619 0.192 0.835l1.565 1.519-1.566 1.519z"></path>
            <path d="M15.718 5.435c-3.599 0-6.527 2.868-6.527 6.394 0 3.525 2.928 6.394 6.527 6.394 3.6 0 6.527-2.868 6.527-6.394s-2.928-6.394-6.527-6.394zM15.718 16.723c-2.772 0-5.027-2.195-5.027-4.894s2.255-4.894 5.027-4.894c2.772 0 5.027 2.195 5.027 4.894s-2.255 4.894-5.027 4.894z"></path>
        </symbol>
        <symbol id="tcb-icon-call_2_action" viewBox="0 0 32 32">
            <title>call_2_action</title>
            <path d="M28.357 0.041h-24.714c-1.986 0-3.602 1.616-3.602 3.602v24.715c0 1.986 1.616 3.602 3.602 3.602h24.715c1.986 0 3.602-1.615 3.602-3.602v-24.716c-0.001-1.986-1.616-3.601-3.603-3.601zM30.459 28.357c0 1.159-0.942 2.102-2.102 2.102h-11.654l-0.001-3.563c0-0.053-0.021-0.099-0.030-0.149l2.151 0.006-2.954-3.658-2.701 3.644 1.947 0.005c-0.010 0.051-0.031 0.099-0.031 0.152l0.001 3.563h-11.442c-1.159 0-2.102-0.942-2.102-2.102v-24.715c0-1.159 0.943-2.102 2.102-2.102h24.715c1.159 0 2.102 0.943 2.102 2.102v24.715z"></path>
            <path d="M25.805 15.364h-20.087c-0.998 0-1.809 0.811-1.809 1.809v7.876c0 0.997 0.811 1.809 1.809 1.809h6.155v-1.618h-6.155c-0.105 0-0.191-0.086-0.191-0.191v-7.876c0-0.105 0.086-0.191 0.191-0.191h20.086c0.105 0 0.191 0.086 0.191 0.191v7.876c0 0.106-0.086 0.191-0.191 0.191h-5.89v1.617h5.89c0.997 0 1.809-0.812 1.809-1.809v-7.876c0-0.997-0.811-1.808-1.808-1.808z"></path>
            <path d="M15.893 18.281c-0.447 0-0.809 0.362-0.809 0.809v2.115c0 0.446 0.362 0.809 0.809 0.809s0.809-0.362 0.809-0.809v-2.115c0-0.446-0.362-0.809-0.809-0.809z"></path>
            <path d="M21.781 23.772c0-0.446-0.362-0.809-0.809-0.809h-2.115c-0.446 0-0.809 0.362-0.809 0.809 0 0.446 0.362 0.809 0.809 0.809h2.115c0.447 0 0.809-0.362 0.809-0.809z"></path>
            <path d="M12.93 22.964h-2.115c-0.447 0-0.809 0.362-0.809 0.809 0 0.446 0.362 0.809 0.809 0.809h2.115c0.447 0 0.809-0.362 0.809-0.809s-0.362-0.809-0.809-0.809z"></path>
            <path d="M12.663 19.808c-0.338-0.292-0.848-0.258-1.141 0.080s-0.257 0.848 0.080 1.141l1.596 1.387c0.153 0.133 0.342 0.198 0.53 0.198 0.226 0 0.451-0.094 0.611-0.278 0.293-0.337 0.257-0.848-0.080-1.141l-1.596-1.387z"></path>
            <path d="M19.976 21.272c0.338-0.293 0.373-0.804 0.080-1.141-0.293-0.338-0.806-0.371-1.141-0.080l-1.595 1.387c-0.337 0.293-0.373 0.804-0.080 1.141 0.16 0.185 0.385 0.278 0.61 0.278 0.189 0 0.378-0.065 0.53-0.198l1.596-1.387z"></path>
            <path d="M5.037 10.049h21.465c0.414 0 0.75-0.336 0.75-0.75s-0.336-0.75-0.75-0.75h-21.465c-0.414 0-0.75 0.336-0.75 0.75s0.336 0.75 0.75 0.75z"></path>
            <path d="M5.037 13.049h21.465c0.414 0 0.75-0.336 0.75-0.75s-0.336-0.75-0.75-0.75h-21.465c-0.414 0-0.75 0.336-0.75 0.75s0.336 0.75 0.75 0.75z"></path>
            <path d="M5.037 7.049h7.465c0.414 0 0.75-0.336 0.75-0.75s-0.336-0.75-0.75-0.75h-7.465c-0.414 0-0.75 0.336-0.75 0.75s0.336 0.75 0.75 0.75z"></path>
        </symbol>
    </defs>
</svg>
