<svg style="position: absolute; width: 0; height: 0; overflow: hidden;" version="1.1" xmlns="http://www.w3.org/2000/svg" xmlns:xlink="http://www.w3.org/1999/xlink">
    <defs>
        <symbol id="tcb-icon-quiz" viewBox="0 0 32 32">
            <title>quiz</title>
            <path fill="#424242" style="fill: var(--color5, #424242)" d="M3.224 9.913c-1.762 0-3.194-1.433-3.194-3.194s1.433-3.194 3.194-3.194 3.195 1.433 3.195 3.194-1.434 3.194-3.195 3.194zM3.224 5.075c-0.906 0-1.644 0.737-1.644 1.644s0.737 1.644 1.644 1.644c0.907 0 1.644-0.737 1.644-1.644s-0.737-1.644-1.644-1.644z"></path>
            <path fill="#424242" style="fill: var(--color5, #424242)" d="M24.482 7.772h-15.249c-0.428 0-0.775-0.347-0.775-0.775s0.347-0.775 0.775-0.775h15.249c0.429 0 0.776 0.347 0.776 0.775 0.001 0.428-0.347 0.775-0.776 0.775z"></path>
            <path fill="#424242" style="fill: var(--color5, #424242)" d="M24.482 15.009h-15.249c-0.428 0-0.775-0.347-0.775-0.775s0.347-0.776 0.775-0.776h15.249c0.429 0 0.776 0.347 0.776 0.776 0.001 0.428-0.347 0.775-0.776 0.775z"></path>
            <path fill="#424242" style="fill: var(--color5, #424242)" d="M3.224 24.388c-1.762 0-3.194-1.433-3.194-3.195 0-1.761 1.433-3.194 3.194-3.194s3.195 1.434 3.195 3.194c-0.001 1.762-1.434 3.195-3.195 3.195zM3.224 19.549c-0.906 0-1.644 0.738-1.644 1.644s0.737 1.643 1.644 1.643c0.907 0 1.644-0.738 1.644-1.643s-0.737-1.644-1.644-1.644z"></path>
            <path fill="#59a31d" style="fill: var(--color6, #59a31d)" d="M3.224 10.862c-1.708 0-3.093 1.385-3.093 3.094s1.385 3.094 3.093 3.094c1.708 0 3.094-1.386 3.094-3.094s-1.386-3.094-3.094-3.094zM5.064 13.604l-1.636 1.76c-0.142 0.152-0.339 0.242-0.548 0.247-0.006 0.001-0.013 0.001-0.020 0.001-0.201 0-0.395-0.078-0.539-0.218l-0.909-0.879c-0.308-0.298-0.316-0.789-0.018-1.096s0.789-0.316 1.096-0.018l0.34 0.329 1.096-1.18c0.293-0.313 0.783-0.332 1.097-0.040 0.315 0.289 0.332 0.78 0.041 1.094z"></path>
            <path fill="#424242" style="fill: var(--color5, #424242)" d="M17.106 21.447c0.244-0.195 0.457-0.476 0.714-0.672 0.032-0.024 0.063-0.054 0.094-0.080h-8.681c-0.428 0-0.775 0.348-0.775 0.776s0.347 0.775 0.775 0.775h7.107c0.299-0.338 0.628-0.69 0.766-0.799z"></path>
            <path fill="#59a31d" style="fill: var(--color6, #59a31d)" d="M27.535 19.747c-0.021 0.017 0.030 0.017-0.055 0.017 0.019-0.017-0.031-0.017 0.055-0.017zM30.22 17.998c-1.021 0-3.153 0.384-3.992 0.55-0.797 0.16-1.843 0.381-2.618 0.684-0.595 0.232-1.165 0.462-1.739 0.748-0.53 0.268-1.055 0.579-1.538 0.932l-0.477 0.354c-0.085 0.060-0.146 0.119-0.23 0.184-0.080 0.063-0.149 0.136-0.226 0.19-0.167 0.128-0.305 0.311-0.463 0.437-0.159 0.123-0.701 0.739-0.841 0.928l-0.508 0.719c-0.492 0.742-0.873 1.635-1.018 2.517-0.052 0.325-0.049 0.493-0.083 0.745-0.004 0.011-0.007 0.023-0.009 0.035v0.392c0.038 0.472 0.164 1.021 0.164 1.066h0.035c0.028-0.335 0.538-1.526 0.663-1.774l0.314-0.587c0.189-0.316 0.392-0.63 0.61-0.923 0.147-0.195 0.303-0.396 0.475-0.573 0.040-0.036 0.040-0.047 0.073-0.089 0.181-0.217 0.415-0.413 0.611-0.612l0.66-0.565c0.027-0.022 0.054-0.040 0.082-0.064l1.164-0.821c0.352-0.204 0.687-0.435 1.042-0.632 0.32-0.181 0.807-0.436 1.117-0.564l0.837-0.37c0.435-0.173 0.871-0.374 1.317-0.523l0.909-0.317c0.159-0.055 0.3-0.101 0.457-0.152 0.136-0.045 0.327-0.132 0.472-0.144l-1 0.463c-0.341 0.141-0.963 0.464-1.32 0.646l-0.964 0.515c-0.303 0.18-0.624 0.357-0.921 0.555l-0.886 0.612c-0.055 0.042-0.078 0.065-0.131 0.104-0.030 0.022-0.045 0.031-0.070 0.053l-0.197 0.169c-0.032 0.027-0.035 0.025-0.070 0.055-0.025 0.024-0.040 0.038-0.065 0.063l-0.835 0.876-0.932 1.288-0.371 0.62c-0.034 0.057-0.052 0.1-0.081 0.15-0.187 0.319-0.355 0.655-0.508 0.994l-0.071 0.178c0.249 0.061 1.63 0.044 1.963-0.004l0.616-0.063c1.011-0.11 2.178-0.392 3.066-0.835 0.043-0.020 0.082-0.034 0.127-0.054 0.033-0.014 0.073-0.032 0.108-0.054 0.046-0.021 0.064-0.039 0.114-0.063l0.222-0.122c0.148-0.079 0.285-0.175 0.421-0.264 0.16-0.105 0.33-0.227 0.474-0.358 0.207-0.184 0.43-0.383 0.607-0.599 0.028-0.036 0.052-0.051 0.076-0.086 0.282-0.354 0.516-0.736 0.766-1.109 0.372-0.554 0.711-1.115 1.011-1.712 0.646-1.292 0.824-1.453 1.633-2.463 0.034-0.040 0.034-0.052 0.073-0.090l0.435-0.413c0.175-0.157 0.403-0.318 0.629-0.399 0.198-0.074 0.301-0.111 0.573-0.111-0.19-0.284-1.006-0.306-1.533-0.306h-0.219zM27.535 19.747v0z"></path>
        </symbol>
    </defs>
</svg>
