<svg style="position: absolute; width: 0; height: 0; overflow: hidden;" version="1.1" xmlns="http://www.w3.org/2000/svg" xmlns:xlink="http://www.w3.org/1999/xlink">
    <defs>
        <symbol id="icon-call_split" viewBox="0 0 32 32">
            <title>call_split</title>
            <path d="M13.312 5.312l-3.063 3.063 7.063 7.063v11.251h-2.625v-10.125l-6.312-6.312-3.063 3.063v-8h8zM18.688 5.312h8v8l-3.063-3.063-3.875 3.875-1.875-1.875 3.875-3.875z"></path>
        </symbol>
        <symbol id="icon-delete_forever" viewBox="0 0 32 32">
            <title>delete_forever</title>
            <path d="M20.688 5.312h4.625v2.688h-18.625v-2.688h4.625l1.375-1.312h6.625zM11.251 15.812l2.875 2.875-2.812 2.812 1.875 1.875 2.812-2.812 2.812 2.812 1.875-1.875-2.812-2.812 2.812-2.875-1.875-1.875-2.812 2.875-2.812-2.875zM8 25.312v-16h16v16c0 1.437-1.251 2.688-2.688 2.688h-10.625c-1.437 0-2.688-1.251-2.688-2.688z"></path>
        </symbol>
        <symbol id="icon-help_outline" viewBox="0 0 32 32">
            <title>help_outline</title>
            <path d="M16 8c2.937 0 5.312 2.375 5.312 5.312 0 3.312-4 3.688-4 6.688h-2.625c0-4.312 4-4 4-6.688 0-1.437-1.251-2.625-2.688-2.625s-2.688 1.188-2.688 2.625h-2.625c0-2.937 2.375-5.312 5.312-5.312zM16 26.688c5.875 0 10.688-4.812 10.688-10.688s-4.812-10.688-10.688-10.688-10.688 4.812-10.688 10.688 4.812 10.688 10.688 10.688zM16 2.688c7.375 0 13.312 5.937 13.312 13.312s-5.937 13.312-13.312 13.312-13.312-5.937-13.312-13.312 5.937-13.312 13.312-13.312zM14.688 24v-2.688h2.625v2.688h-2.625z"></path>
        </symbol>
        <symbol id="icon-in" viewBox="0 0 32 32">
            <title>in</title>
            <path d="M30 14c-1.105 0-2 0.896-2 2v12h-24v-12c0-1.104-0.894-2-2-2s-2 0.896-2 2v14c0 1.105 0.894 2 2 2h28c1.105 0 2-0.895 2-2v-14c0-1.104-0.895-2-2-2zM18 14v-12.244c0-0.97-0.895-1.756-2-1.756s-2 0.786-2 1.756v12.244h-6l8 8 8-8h-6z"></path>
        </symbol>
        <symbol id="icon-rotate" viewBox="0 0 32 32">
            <title>rotate</title>
            <path d="M5.966 16.767l4.090-4.090h-2.397c0.022-0.060 0.045-0.119 0.067-0.178 1.422-3.602 4.934-6.15 9.040-6.15 5.366 0 9.716 4.35 9.716 9.715s-4.35 9.716-9.716 9.716c-3.946 0-7.343-2.354-8.863-5.733-0.015-0.031-0.024-0.066-0.039-0.099l-2.605 2.589c0.018 0.030 0.030 0.064 0.048 0.096 0.004 0.007 0.008 0.014 0.012 0.020 2.299 3.972 6.594 6.643 11.513 6.643 7.342 0 13.294-5.952 13.294-13.294s-5.953-13.296-13.295-13.296c-6.138 0-11.303 4.158-12.833 9.812-0.015 0.052-0.020 0.107-0.032 0.159h-2.091l4.091 4.090z"></path>
        </symbol>
        <symbol id="icon-transfer" viewBox="0 0 32 32">
            <title>transfer</title>
            <path d="M31.998 24h-24.006v4l-7.992-6 7.992-6v4h24.006zM0 12h23.998v4l8-6-8-6v4h-23.998z"></path>
        </symbol>
        <symbol id="icon-view_column" viewBox="0 0 32 32">
            <title>view_column</title>
            <path d="M21.312 6.688h6.688v17.312h-6.688v-17.312zM5.312 24v-17.312h6.688v17.312h-6.688zM13.312 24v-17.312h6.688v17.312h-6.688z"></path>
        </symbol>
        <symbol id="icon-ss-t-bottom" viewBox="0 0 34 32">
            <title>ss-t-bottom</title>
            <path fill="#7b888e" style="fill: var(--color1, #7b888e)" d="M32 1c0.552 0 1 0.448 1 1v0 21c0 0.552-0.448 1-1 1v0h-30c-0.552 0-1-0.448-1-1v0-21c0-0.552 0.448-1 1-1v0h30zM32 0h-30c-1.105 0-2 0.895-2 2v0 21c0 1.105 0.895 2 2 2v0h30c1.105 0 2-0.895 2-2v0-21c0-1.105-0.895-2-2-2v0 0z"></path>
            <path fill="#7b888e" style="fill: var(--color1, #7b888e)" d="M10.035 7.755c0.307 0.001 0.581 0.14 0.764 0.358l0.001 0.002 4.73 5.685c0.369 0.441 0.921 0.72 1.537 0.72 0.552 0 1.052-0.223 1.413-0.585l2.065-2.065c0.091-0.091 0.216-0.147 0.354-0.147 0.155 0 0.294 0.070 0.385 0.181l0.001 0.001 6.215 7.455c0.144 0.172 0.232 0.396 0.232 0.64 0 0.552-0.448 1-1 1-0.001 0-0.001 0-0.002 0h-21.66c-0 0-0 0-0.001 0-0.552 0-1-0.448-1-1 0-0.147 0.032-0.286 0.088-0.411l-0.003 0.006 4.96-11.24c0.159-0.353 0.509-0.595 0.914-0.595 0.002 0 0.004 0 0.006 0h-0zM10.035 6.76c-0.002 0-0.004 0-0.006 0-0.811 0-1.51 0.483-1.824 1.177l-0.005 0.013-4.96 11.245c-0.107 0.237-0.169 0.514-0.169 0.805 0 1.104 0.895 2 1.999 2h21.66c1.104-0.001 1.998-0.896 1.998-2 0-0.488-0.175-0.936-0.466-1.283l0.003 0.003-6.215-7.46c-0.277-0.331-0.691-0.541-1.153-0.541-0.415 0-0.79 0.168-1.062 0.441l-2.065 2.065c-0.182 0.19-0.438 0.307-0.721 0.307-0.314 0-0.594-0.145-0.777-0.371l-0.001-0.002-4.705-5.66c-0.368-0.44-0.916-0.718-1.53-0.72h-0z"></path>
            <path fill="#7b888e" style="fill: var(--color1, #7b888e)" d="M28.040 4.125c1.29 0 2.335 1.045 2.335 2.335s-1.045 2.335-2.335 2.335c-1.29 0-2.335-1.045-2.335-2.335v0c0-1.29 1.045-2.335 2.335-2.335v0zM28.040 2.96c-1.933 0-3.5 1.567-3.5 3.5s1.567 3.5 3.5 3.5c1.933 0 3.5-1.567 3.5-3.5v0c0-1.933-1.567-3.5-3.5-3.5v0 0z"></path>
            <path fill="#3569b4" style="fill: var(--color2, #3569b4)" d="M8 29c0.552 0 1 0.448 1 1s-0.448 1-1 1v0h-6c-0.552 0-1-0.448-1-1s0.448-1 1-1v0h6zM8 28h-6c-1.105 0-2 0.895-2 2v0 0c0 1.105 0.895 2 2 2v0h6c1.105 0 2-0.895 2-2v0 0c0-1.105-0.895-2-2-2v0 0z"></path>
            <path fill="#29ace0" style="fill: var(--color3, #29ace0)" d="M20 29c0.552 0 1 0.448 1 1s-0.448 1-1 1v0h-6c-0.552 0-1-0.448-1-1s0.448-1 1-1v0h6zM20 28h-6c-1.105 0-2 0.895-2 2v0 0c0 1.105 0.895 2 2 2v0h6c1.105 0 2-0.895 2-2v0 0c0-1.105-0.895-2-2-2v0 0z"></path>
            <path fill="#e04b35" style="fill: var(--color4, #e04b35)" d="M32 29c0.552 0 1 0.448 1 1s-0.448 1-1 1v0h-6c-0.552 0-1-0.448-1-1s0.448-1 1-1v0h6zM32 28h-6c-1.105 0-2 0.895-2 2v0 0c0 1.105 0.895 2 2 2v0h6c1.105 0 2-0.895 2-2v0 0c0-1.105-0.895-2-2-2v0 0z"></path>
        </symbol>
        <symbol id="icon-ss-t-left" viewBox="0 0 60 32">
            <title>ss-t-left</title>
            <path fill="#7b888e" style="fill: var(--color1, #7b888e)" d="M57.6 1.28c0.707 0 1.28 0.573 1.28 1.28v0 26.88c0 0.707-0.573 1.28-1.28 1.28v0h-38.4c-0.707 0-1.28-0.573-1.28-1.28v0-26.88c0-0.707 0.573-1.28 1.28-1.28v0h38.4zM57.6 0h-38.4c-1.414 0-2.56 1.146-2.56 2.56v0 26.88c0 1.414 1.146 2.56 2.56 2.56v0h38.4c1.414 0 2.56-1.146 2.56-2.56v0-26.88c0-1.414-1.146-2.56-2.56-2.56v0 0z"></path>
            <path fill="#7b888e" style="fill: var(--color1, #7b888e)" d="M29.485 9.926c0.393 0.001 0.744 0.179 0.978 0.459l0.002 0.002 6.054 7.277c0.473 0.565 1.178 0.921 1.967 0.921 0.706 0 1.346-0.286 1.809-0.749l2.643-2.643c0.116-0.116 0.276-0.188 0.453-0.188 0.198 0 0.376 0.090 0.493 0.232l0.001 0.001 7.955 9.542c0.184 0.22 0.296 0.507 0.296 0.819 0 0.707-0.573 1.28-1.28 1.28-0.001 0-0.001 0-0.002 0h-27.725c-0 0-0.001 0-0.001 0-0.707 0-1.28-0.573-1.28-1.28 0-0.188 0.040-0.366 0.113-0.526l-0.003 0.008 6.349-14.387c0.204-0.452 0.651-0.762 1.17-0.762 0.003 0 0.005 0 0.008 0h-0zM29.485 8.653c-0.002 0-0.005 0-0.008 0-1.039 0-1.933 0.618-2.334 1.507l-0.007 0.016-6.349 14.394c-0.137 0.303-0.217 0.658-0.217 1.030 0 1.413 1.146 2.559 2.559 2.56h27.725c1.413-0.001 2.558-1.147 2.558-2.56 0-0.625-0.224-1.198-0.596-1.642l0.003 0.004-7.955-9.549c-0.355-0.424-0.884-0.692-1.476-0.692-0.531 0-1.012 0.216-1.359 0.564l-2.643 2.643c-0.233 0.243-0.561 0.394-0.923 0.394-0.402 0-0.76-0.185-0.995-0.474l-0.002-0.002-6.022-7.245c-0.471-0.563-1.173-0.919-1.958-0.922h-0z"></path>
            <path fill="#7b888e" style="fill: var(--color1, #7b888e)" d="M52.531 5.28c1.651 0 2.989 1.338 2.989 2.989s-1.338 2.989-2.989 2.989c-1.651 0-2.989-1.338-2.989-2.989v0c0-1.651 1.338-2.989 2.989-2.989v0zM52.531 3.789c-2.474 0-4.48 2.006-4.48 4.48s2.006 4.48 4.48 4.48c2.474 0 4.48-2.006 4.48-4.48v0c0-2.474-2.006-4.48-4.48-4.48v0 0z"></path>
            <path fill="#3569b4" style="fill: var(--color2, #3569b4)" d="M10.24 1.28c0.707 0 1.28 0.573 1.28 1.28s-0.573 1.28-1.28 1.28v0h-7.68c-0.707 0-1.28-0.573-1.28-1.28s0.573-1.28 1.28-1.28v0h7.68zM10.24 0h-7.68c-1.414 0-2.56 1.146-2.56 2.56v0 0c0 1.414 1.146 2.56 2.56 2.56v0h7.68c1.414 0 2.56-1.146 2.56-2.56v0 0c0-1.414-1.146-2.56-2.56-2.56v0 0z"></path>
            <path fill="#29ace0" style="fill: var(--color3, #29ace0)" d="M10.24 8.96c0.707 0 1.28 0.573 1.28 1.28s-0.573 1.28-1.28 1.28v0h-7.68c-0.707 0-1.28-0.573-1.28-1.28s0.573-1.28 1.28-1.28v0h7.68zM10.24 7.68h-7.68c-1.414 0-2.56 1.146-2.56 2.56v0 0c0 1.414 1.146 2.56 2.56 2.56v0h7.68c1.414 0 2.56-1.146 2.56-2.56v0 0c0-1.414-1.146-2.56-2.56-2.56v0 0z"></path>
            <path fill="#e04b35" style="fill: var(--color4, #e04b35)" d="M10.24 16.64c0.707 0 1.28 0.573 1.28 1.28s-0.573 1.28-1.28 1.28v0h-7.68c-0.707 0-1.28-0.573-1.28-1.28s0.573-1.28 1.28-1.28v0h7.68zM10.24 15.36h-7.68c-1.414 0-2.56 1.146-2.56 2.56v0 0c0 1.414 1.146 2.56 2.56 2.56v0h7.68c1.414 0 2.56-1.146 2.56-2.56v0 0c0-1.414-1.146-2.56-2.56-2.56v0 0z"></path>
        </symbol>
        <symbol id="icon-ss-t-right" viewBox="0 0 60 32">
            <title>ss-t-right</title>
            <path fill="#7b888e" style="fill: var(--color1, #7b888e)" d="M40.96 1.28c0.707 0 1.28 0.573 1.28 1.28v0 26.88c0 0.707-0.573 1.28-1.28 1.28v0h-38.4c-0.707 0-1.28-0.573-1.28-1.28v0-26.88c0-0.707 0.573-1.28 1.28-1.28v0h38.4zM40.96 0h-38.4c-1.414 0-2.56 1.146-2.56 2.56v0 26.88c0 1.414 1.146 2.56 2.56 2.56v0h38.4c1.414 0 2.56-1.146 2.56-2.56v0-26.88c0-1.414-1.146-2.56-2.56-2.56v0 0z"></path>
            <path fill="#7b888e" style="fill: var(--color1, #7b888e)" d="M12.845 9.926c0.393 0.001 0.744 0.179 0.978 0.459l0.002 0.002 6.054 7.277c0.473 0.565 1.178 0.921 1.967 0.921 0.706 0 1.346-0.286 1.809-0.749l2.643-2.643c0.116-0.116 0.276-0.188 0.453-0.188 0.198 0 0.376 0.090 0.493 0.232l0.001 0.001 7.955 9.542c0.184 0.22 0.296 0.507 0.296 0.819 0 0.707-0.573 1.28-1.28 1.28-0.001 0-0.001 0-0.002 0h-27.725c-0 0-0.001 0-0.001 0-0.707 0-1.28-0.573-1.28-1.28 0-0.188 0.040-0.366 0.113-0.526l-0.003 0.008 6.349-14.387c0.204-0.452 0.651-0.762 1.17-0.762 0.003 0 0.005 0 0.008 0h-0zM12.845 8.653c-0.002 0-0.005 0-0.008 0-1.039 0-1.933 0.618-2.334 1.507l-0.007 0.016-6.349 14.394c-0.137 0.303-0.217 0.658-0.217 1.030 0 1.413 1.146 2.559 2.559 2.56h27.725c1.413-0.001 2.558-1.147 2.558-2.56 0-0.625-0.224-1.198-0.596-1.642l0.003 0.004-7.955-9.549c-0.355-0.424-0.884-0.692-1.476-0.692-0.531 0-1.012 0.216-1.359 0.564l-2.643 2.643c-0.233 0.243-0.561 0.394-0.923 0.394-0.402 0-0.76-0.185-0.995-0.474l-0.002-0.002-6.022-7.245c-0.471-0.563-1.173-0.919-1.958-0.922h-0z"></path>
            <path fill="#7b888e" style="fill: var(--color1, #7b888e)" d="M35.891 5.28c1.651 0 2.989 1.338 2.989 2.989s-1.338 2.989-2.989 2.989c-1.651 0-2.989-1.338-2.989-2.989v0c0-1.651 1.338-2.989 2.989-2.989v0zM35.891 3.789c-2.474 0-4.48 2.006-4.48 4.48s2.006 4.48 4.48 4.48c2.474 0 4.48-2.006 4.48-4.48v0c0-2.474-2.006-4.48-4.48-4.48v0 0z"></path>
            <path fill="#3569b4" style="fill: var(--color2, #3569b4)" d="M57.6 1.28c0.707 0 1.28 0.573 1.28 1.28s-0.573 1.28-1.28 1.28v0h-7.68c-0.707 0-1.28-0.573-1.28-1.28s0.573-1.28 1.28-1.28v0h7.68zM57.6 0h-7.68c-1.414 0-2.56 1.146-2.56 2.56v0 0c0 1.414 1.146 2.56 2.56 2.56v0h7.68c1.414 0 2.56-1.146 2.56-2.56v0 0c0-1.414-1.146-2.56-2.56-2.56v0 0z"></path>
            <path fill="#29ace0" style="fill: var(--color3, #29ace0)" d="M57.6 8.96c0.707 0 1.28 0.573 1.28 1.28s-0.573 1.28-1.28 1.28v0h-7.68c-0.707 0-1.28-0.573-1.28-1.28s0.573-1.28 1.28-1.28v0h7.68zM57.6 7.68h-7.68c-1.414 0-2.56 1.146-2.56 2.56v0 0c0 1.414 1.146 2.56 2.56 2.56v0h7.68c1.414 0 2.56-1.146 2.56-2.56v0 0c0-1.414-1.146-2.56-2.56-2.56v0 0z"></path>
            <path fill="#e04b35" style="fill: var(--color4, #e04b35)" d="M57.6 16.64c0.707 0 1.28 0.573 1.28 1.28s-0.573 1.28-1.28 1.28v0h-7.68c-0.707 0-1.28-0.573-1.28-1.28s0.573-1.28 1.28-1.28v0h7.68zM57.6 15.36h-7.68c-1.414 0-2.56 1.146-2.56 2.56v0 0c0 1.414 1.146 2.56 2.56 2.56v0h7.68c1.414 0 2.56-1.146 2.56-2.56v0 0c0-1.414-1.146-2.56-2.56-2.56v0 0z"></path>
        </symbol>
        <symbol id="icon-ss-t-top" viewBox="0 0 34 32">
            <title>ss-t-top</title>
            <path fill="#7b888e" style="fill: var(--color1, #7b888e)" d="M32 8c0.552 0 1 0.448 1 1v0 21c0 0.552-0.448 1-1 1v0h-30c-0.552 0-1-0.448-1-1v0-21c0-0.552 0.448-1 1-1v0h30zM32 7h-30c-1.105 0-2 0.895-2 2v0 21c0 1.105 0.895 2 2 2v0h30c1.105 0 2-0.895 2-2v0-21c0-1.105-0.895-2-2-2v0 0z"></path>
            <path fill="#7b888e" style="fill: var(--color1, #7b888e)" d="M10.035 14.755c0.307 0.001 0.581 0.14 0.764 0.358l0.001 0.002 4.73 5.685c0.369 0.441 0.921 0.72 1.537 0.72 0.552 0 1.052-0.224 1.413-0.585l2.065-2.065c0.091-0.091 0.216-0.147 0.354-0.147 0.155 0 0.294 0.070 0.385 0.181l0.001 0.001 6.215 7.455c0.144 0.172 0.232 0.396 0.232 0.64 0 0.552-0.448 1-1 1-0.001 0-0.001 0-0.002 0h-21.66c-0 0-0 0-0.001 0-0.552 0-1-0.448-1-1 0-0.147 0.032-0.286 0.088-0.411l-0.003 0.006 4.96-11.24c0.159-0.353 0.509-0.595 0.914-0.595 0.002 0 0.004 0 0.006 0h-0zM10.035 13.76c-0.002 0-0.004 0-0.006 0-0.811 0-1.51 0.483-1.824 1.177l-0.005 0.013-4.96 11.245c-0.107 0.237-0.169 0.514-0.169 0.805 0 1.104 0.895 2 1.999 2h21.66c1.104-0.001 1.998-0.896 1.998-2 0-0.488-0.175-0.936-0.466-1.283l0.003 0.003-6.215-7.46c-0.277-0.331-0.691-0.541-1.153-0.541-0.415 0-0.79 0.168-1.062 0.441l-2.065 2.065c-0.182 0.19-0.438 0.307-0.721 0.307-0.314 0-0.594-0.145-0.777-0.371l-0.001-0.002-4.705-5.66c-0.368-0.44-0.916-0.718-1.53-0.72h-0z"></path>
            <path fill="#7b888e" style="fill: var(--color1, #7b888e)" d="M28.040 11.125c1.29 0 2.335 1.045 2.335 2.335s-1.045 2.335-2.335 2.335c-1.29 0-2.335-1.045-2.335-2.335v0c0-1.29 1.045-2.335 2.335-2.335v0zM28.040 9.96c-1.933 0-3.5 1.567-3.5 3.5s1.567 3.5 3.5 3.5c1.933 0 3.5-1.567 3.5-3.5v0c0-1.933-1.567-3.5-3.5-3.5v0 0z"></path>
            <path fill="#3569b4" style="fill: var(--color2, #3569b4)" d="M8 1c0.552 0 1 0.448 1 1s-0.448 1-1 1v0h-6c-0.552 0-1-0.448-1-1s0.448-1 1-1v0h6zM8 0h-6c-1.105 0-2 0.895-2 2v0 0c0 1.105 0.895 2 2 2v0h6c1.105 0 2-0.895 2-2v0 0c0-1.105-0.895-2-2-2v0 0z"></path>
            <path fill="#29ace0" style="fill: var(--color3, #29ace0)" d="M20 1c0.552 0 1 0.448 1 1s-0.448 1-1 1v0h-6c-0.552 0-1-0.448-1-1s0.448-1 1-1v0h6zM20 0h-6c-1.105 0-2 0.895-2 2v0 0c0 1.105 0.895 2 2 2v0h6c1.105 0 2-0.895 2-2v0 0c0-1.105-0.895-2-2-2v0 0z"></path>
            <path fill="#e04b35" style="fill: var(--color4, #e04b35)" d="M32 1c0.552 0 1 0.448 1 1s-0.448 1-1 1v0h-6c-0.552 0-1-0.448-1-1s0.448-1 1-1v0h6zM32 0h-6c-1.105 0-2 0.895-2 2v0 0c0 1.105 0.895 2 2 2v0h6c1.105 0 2-0.895 2-2v0 0c0-1.105-0.895-2-2-2v0 0z"></path>
        </symbol>
        <symbol id="icon-dynamic_content" viewBox="0 0 32 32">
            <title>dynamic_content</title>
            <path d="M5.9 27.4h20.3c0.4 0 0.8-0.3 0.8-0.8s-0.3-0.8-0.8-0.8h-20.3c-0.4 0-0.8 0.3-0.8 0.8s0.3 0.8 0.8 0.8z"></path>
            <path d="M5.9 23.2h20.3c0.4 0 0.8-0.3 0.8-0.8s-0.3-0.8-0.8-0.8h-20.3c-0.4 0-0.8 0.3-0.8 0.8s0.3 0.8 0.8 0.8z"></path>
            <path d="M24.9 17.2h-1.3v1.5h2.8v-2.7h-1.5z"></path>
            <path d="M8.6 17.2h4.3v1.5h-4.3v-1.5z"></path>
            <path d="M13.6 17.2h4.3v1.5h-4.3v-1.5z"></path>
            <path d="M18.6 17.2h4.3v1.5h-4.3v-1.5z"></path>
            <path d="M7.9 17.2h-1.3v-1.2h-1.5v2.7h2.8z"></path>
            <path d="M6.6 13.2h1.3v-1.5h-2.8v2.8h1.5z"></path>
            <path d="M18.6 11.7h4.3v1.5h-4.3v-1.5z"></path>
            <path d="M8.6 11.7h4.3v1.5h-4.3v-1.5z"></path>
            <path d="M26.4 11.7h-2.8v1.5h1.3v1.3h1.5z"></path>
            <path d="M27.8 2.2v1.4h2.8v27h-29.2v-27h2.8v-1.4h-4.2v29.8h32v-29.8z"></path>
            <path d="M14.6 11.7h-1v1.5h4.3v-1.5h-1l5.2-6.1h4v-5.6h-9.3v5.6h3.3l-4.4 5.1-4.4-5.1h3.8v-5.6h-9.2v5.6h3.5l5.2 6.1zM18.4 4.1v-2.6h6.3v2.6h-6.3zM7.4 1.5h6.3v2.6h-6.3v-2.6z"></path>
        </symbol>
        <symbol id="icon-social_share_badge" viewBox="0 0 32 32">
            <title>social_share_badge</title>
            <path d="M16 32c-0.2 0-0.4-0.1-0.6-0.3l-1.6-2.1-2.2 1.5c-0.2 0.1-0.4 0.2-0.6 0.1s-0.4-0.2-0.5-0.5l-0.8-2.5-2.5 0.8c-0.2 0.1-0.5 0-0.6-0.1-0.2-0.1-0.3-0.3-0.3-0.6v-2.6h-2.7c-0.2 0-0.4-0.1-0.6-0.3s-0.2-0.4-0.1-0.6l0.8-2.5-2.5-0.8c-0.2-0.2-0.4-0.3-0.5-0.5s0-0.5 0.1-0.6l1.5-2.1-2.1-1.6c-0.2-0.2-0.3-0.4-0.3-0.7s0.1-0.4 0.3-0.6l2.1-1.6-1.5-2.1c-0.1-0.2-0.2-0.4-0.1-0.6s0.2-0.4 0.5-0.5l2.5-0.8-0.8-2.5c-0.1-0.2 0-0.5 0.1-0.7s0.3-0.3 0.6-0.3h2.7v-2.6c0-0.2 0.1-0.4 0.3-0.6 0.1-0.1 0.4-0.2 0.6-0.1l2.5 0.8 0.8-2.5c0.1-0.2 0.2-0.4 0.5-0.5 0.2-0.1 0.5 0 0.6 0.1l2.2 1.5 1.6-2.1c0.1-0.2 0.3-0.3 0.6-0.3v0c0.2 0 0.4 0.1 0.6 0.3l1.6 2.1 2.2-1.5c0.2-0.1 0.4-0.2 0.6-0.1s0.4 0.2 0.5 0.5l0.8 2.5 2.5-0.8c0.2-0.1 0.5 0 0.6 0.1 0.2 0.1 0.3 0.3 0.3 0.6v2.6h2.7c0.2 0 0.4 0.1 0.6 0.3 0.1 0.2 0.2 0.4 0.1 0.6l-0.8 2.5 2.5 0.8c0.2 0.1 0.4 0.2 0.5 0.5 0.1 0.2 0 0.5-0.1 0.6l-1.5 2.1 2.1 1.6c0.2 0.1 0.3 0.4 0.3 0.6s-0.1 0.4-0.3 0.6l-2.1 1.6 1.5 2.1c0.1 0.2 0.2 0.4 0.1 0.6s-0.2 0.4-0.5 0.5l-2.5 0.8 0.8 2.5c0.1 0.2 0 0.5-0.1 0.6-0.1 0.2-0.3 0.3-0.6 0.3h-2.7v2.6c0 0.2-0.1 0.4-0.3 0.6-0.2 0.1-0.4 0.2-0.6 0.1l-2.5-0.8-0.8 2.5c-0.1 0.2-0.2 0.4-0.5 0.5-0.2 0.1-0.5 0-0.6-0.1l-2.2-1.5-1.6 2.1c-0.2 0.4-0.4 0.5-0.6 0.5zM14 27.9c0.2 0 0.4 0.1 0.6 0.3l1.4 1.9 1.4-1.9c0.2-0.3 0.7-0.4 1-0.2l2 1.4 0.8-2.3c0.1-0.4 0.5-0.6 0.9-0.5l2.3 0.7v-2.4c0-0.4 0.3-0.7 0.7-0.7h2.4l-0.8-2.2c-0.1-0.4 0.1-0.8 0.5-0.9l2.3-0.8-1.4-1.9c-0.2-0.3-0.2-0.8 0.2-1l1.9-1.4-1.9-1.4c-0.3-0.2-0.4-0.7-0.2-1l1.4-1.9-2.3-0.7c-0.4-0.1-0.6-0.5-0.5-0.9l0.7-2.3h-2.4c-0.4 0-0.7-0.3-0.7-0.7v-2.4l-2.3 0.7c-0.4 0.1-0.8-0.1-0.9-0.5l-0.8-2.3-2 1.4c-0.3 0.2-0.8 0.2-1-0.2l-1.3-1.8-1.4 1.9c-0.2 0.3-0.7 0.4-1 0.2l-2-1.4-0.8 2.3c-0.1 0.4-0.5 0.6-0.9 0.5l-2.2-0.8v2.4c0 0.4-0.3 0.7-0.7 0.7h-2.4l0.7 2.2c0.1 0.4-0.1 0.8-0.5 0.9l-2.3 0.7 1.4 1.9c0.2 0.3 0.2 0.8-0.2 1l-1.8 1.5 1.9 1.4c0.3 0.2 0.4 0.7 0.2 1l-1.4 1.9 2.3 0.8c0.4 0.1 0.6 0.5 0.5 0.9l-0.7 2.3h2.4c0.4 0 0.7 0.3 0.7 0.7v2.4l2.3-0.7c0.4-0.1 0.8 0.1 0.9 0.5l0.8 2.3 2-1.4c-0.1-0.2 0.1-0.2 0.2-0.2z"></path>
            <path d="M19.1 18.3c-0.8 0-1.5 0.3-2 0.9l-3.9-2c0.2-0.4 0.3-0.8 0.3-1.2s-0.1-0.8-0.3-1.2l3.9-2c0.5 0.5 1.2 0.9 2 0.9 1.5 0 2.7-1.2 2.7-2.7s-1.2-2.7-2.7-2.7-2.7 1.2-2.7 2.7c0 0.2 0 0.4 0.1 0.5l-4.2 2.2v0.1c-0.4-0.3-0.9-0.5-1.5-0.5-1.5 0-2.7 1.2-2.7 2.7s1.2 2.7 2.7 2.7c0.5 0 0.9-0.1 1.3-0.4l4.3 2.2c0 0.2-0.1 0.3-0.1 0.5 0 1.5 1.2 2.7 2.7 2.7s2.7-1.2 2.7-2.7-1.1-2.7-2.6-2.7zM19.1 9.8c0.7 0 1.2 0.5 1.2 1.2s-0.5 1.2-1.2 1.2-1.2-0.5-1.2-1.2 0.6-1.2 1.2-1.2zM10.9 17.2c-0.7 0-1.2-0.5-1.2-1.2s0.5-1.2 1.2-1.2c0.7 0 1.2 0.5 1.2 1.2 0 0.6-0.6 1.2-1.2 1.2zM19.1 22.3c-0.7 0-1.2-0.5-1.2-1.2s0.5-1.2 1.2-1.2 1.2 0.5 1.2 1.2-0.5 1.2-1.2 1.2z"></path>
        </symbol>
        <symbol id="icon-quiz" viewBox="0 0 32 32">
            <title>quiz</title>
            <path fill="#424242" style="fill: var(--color5, #424242)" d="M3.224 9.913c-1.762 0-3.194-1.433-3.194-3.194s1.433-3.194 3.194-3.194 3.195 1.433 3.195 3.194-1.434 3.194-3.195 3.194zM3.224 5.075c-0.906 0-1.644 0.737-1.644 1.644s0.737 1.644 1.644 1.644c0.907 0 1.644-0.737 1.644-1.644s-0.737-1.644-1.644-1.644z"></path>
            <path fill="#424242" style="fill: var(--color5, #424242)" d="M24.482 7.772h-15.249c-0.428 0-0.775-0.347-0.775-0.775s0.347-0.775 0.775-0.775h15.249c0.429 0 0.776 0.347 0.776 0.775 0.001 0.428-0.347 0.775-0.776 0.775z"></path>
            <path fill="#424242" style="fill: var(--color5, #424242)" d="M24.482 15.009h-15.249c-0.428 0-0.775-0.347-0.775-0.775s0.347-0.776 0.775-0.776h15.249c0.429 0 0.776 0.347 0.776 0.776 0.001 0.428-0.347 0.775-0.776 0.775z"></path>
            <path fill="#424242" style="fill: var(--color5, #424242)" d="M3.224 24.388c-1.762 0-3.194-1.433-3.194-3.195 0-1.761 1.433-3.194 3.194-3.194s3.195 1.434 3.195 3.194c-0.001 1.762-1.434 3.195-3.195 3.195zM3.224 19.549c-0.906 0-1.644 0.738-1.644 1.644s0.737 1.643 1.644 1.643c0.907 0 1.644-0.738 1.644-1.643s-0.737-1.644-1.644-1.644z"></path>
            <path fill="#59a31d" style="fill: var(--color6, #59a31d)" d="M3.224 10.862c-1.708 0-3.093 1.385-3.093 3.094s1.385 3.094 3.093 3.094c1.708 0 3.094-1.386 3.094-3.094s-1.386-3.094-3.094-3.094zM5.064 13.604l-1.636 1.76c-0.142 0.152-0.339 0.242-0.548 0.247-0.006 0.001-0.013 0.001-0.020 0.001-0.201 0-0.395-0.078-0.539-0.218l-0.909-0.879c-0.308-0.298-0.316-0.789-0.018-1.096s0.789-0.316 1.096-0.018l0.34 0.329 1.096-1.18c0.293-0.313 0.783-0.332 1.097-0.040 0.315 0.289 0.332 0.78 0.041 1.094z"></path>
            <path fill="#424242" style="fill: var(--color5, #424242)" d="M17.106 21.447c0.244-0.195 0.457-0.476 0.714-0.672 0.032-0.024 0.063-0.054 0.094-0.080h-8.681c-0.428 0-0.775 0.348-0.775 0.776s0.347 0.775 0.775 0.775h7.107c0.299-0.338 0.628-0.69 0.766-0.799z"></path>
            <path fill="#59a31d" style="fill: var(--color6, #59a31d)" d="M27.535 19.747c-0.021 0.017 0.030 0.017-0.055 0.017 0.019-0.017-0.031-0.017 0.055-0.017zM30.22 17.998c-1.021 0-3.153 0.384-3.992 0.55-0.797 0.16-1.843 0.381-2.618 0.684-0.595 0.232-1.165 0.462-1.739 0.748-0.53 0.268-1.055 0.579-1.538 0.932l-0.477 0.354c-0.085 0.060-0.146 0.119-0.23 0.184-0.080 0.063-0.149 0.136-0.226 0.19-0.167 0.128-0.305 0.311-0.463 0.437-0.159 0.123-0.701 0.739-0.841 0.928l-0.508 0.719c-0.492 0.742-0.873 1.635-1.018 2.517-0.052 0.325-0.049 0.493-0.083 0.745-0.004 0.011-0.007 0.023-0.009 0.035v0.392c0.038 0.472 0.164 1.021 0.164 1.066h0.035c0.028-0.335 0.538-1.526 0.663-1.774l0.314-0.587c0.189-0.316 0.392-0.63 0.61-0.923 0.147-0.195 0.303-0.396 0.475-0.573 0.040-0.036 0.040-0.047 0.073-0.089 0.181-0.217 0.415-0.413 0.611-0.612l0.66-0.565c0.027-0.022 0.054-0.040 0.082-0.064l1.164-0.821c0.352-0.204 0.687-0.435 1.042-0.632 0.32-0.181 0.807-0.436 1.117-0.564l0.837-0.37c0.435-0.173 0.871-0.374 1.317-0.523l0.909-0.317c0.159-0.055 0.3-0.101 0.457-0.152 0.136-0.045 0.327-0.132 0.472-0.144l-1 0.463c-0.341 0.141-0.963 0.464-1.32 0.646l-0.964 0.515c-0.303 0.18-0.624 0.357-0.921 0.555l-0.886 0.612c-0.055 0.042-0.078 0.065-0.131 0.104-0.030 0.022-0.045 0.031-0.070 0.053l-0.197 0.169c-0.032 0.027-0.035 0.025-0.070 0.055-0.025 0.024-0.040 0.038-0.065 0.063l-0.835 0.876-0.932 1.288-0.371 0.62c-0.034 0.057-0.052 0.1-0.081 0.15-0.187 0.319-0.355 0.655-0.508 0.994l-0.071 0.178c0.249 0.061 1.63 0.044 1.963-0.004l0.616-0.063c1.011-0.11 2.178-0.392 3.066-0.835 0.043-0.020 0.082-0.034 0.127-0.054 0.033-0.014 0.073-0.032 0.108-0.054 0.046-0.021 0.064-0.039 0.114-0.063l0.222-0.122c0.148-0.079 0.285-0.175 0.421-0.264 0.16-0.105 0.33-0.227 0.474-0.358 0.207-0.184 0.43-0.383 0.607-0.599 0.028-0.036 0.052-0.051 0.076-0.086 0.282-0.354 0.516-0.736 0.766-1.109 0.372-0.554 0.711-1.115 1.011-1.712 0.646-1.292 0.824-1.453 1.633-2.463 0.034-0.040 0.034-0.052 0.073-0.090l0.435-0.413c0.175-0.157 0.403-0.318 0.629-0.399 0.198-0.074 0.301-0.111 0.573-0.111-0.19-0.284-1.006-0.306-1.533-0.306h-0.219zM27.535 19.747v0z"></path>
        </symbol>
    </defs>
</svg>
